<?xml version="1.0" encoding="UTF-8" standalone="no"?>
<!-- Created with Inkscape (http://www.inkscape.org/) -->

<svg
   xmlns:dc="http://purl.org/dc/elements/1.1/"
   xmlns:cc="http://creativecommons.org/ns#"
   xmlns:rdf="http://www.w3.org/1999/02/22-rdf-syntax-ns#"
   xmlns:svg="http://www.w3.org/2000/svg"
   xmlns="http://www.w3.org/2000/svg"
   xmlns:sodipodi="http://sodipodi.sourceforge.net/DTD/sodipodi-0.dtd"
   xmlns:inkscape="http://www.inkscape.org/namespaces/inkscape"
   id="svg3055"
   version="1.1"
   inkscape:version="0.48.1 r9760"
   width="75.661179"
   height="87.970795"
   sodipodi:docname="favicon.svg">
  <metadata
     id="metadata3061">
    <rdf:RDF>
      <cc:Work
         rdf:about="">
        <dc:format>image/svg+xml</dc:format>
        <dc:type
           rdf:resource="http://purl.org/dc/dcmitype/StillImage" />
        <dc:title></dc:title>
      </cc:Work>
    </rdf:RDF>
  </metadata>
  <defs
     id="defs3059" />
  <sodipodi:namedview
     pagecolor="#ffffff"
     bordercolor="#666666"
     borderopacity="1"
     objecttolerance="10"
     gridtolerance="10"
     guidetolerance="10"
     inkscape:pageopacity="0"
     inkscape:pageshadow="2"
     inkscape:window-width="640"
     inkscape:window-height="480"
     id="namedview3057"
     showgrid="false"
     inkscape:zoom="2.0857143"
     inkscape:cx="38.161654"
     inkscape:cy="42.000983"
     inkscape:window-x="1981"
     inkscape:window-y="220"
     inkscape:window-maximized="0"
     inkscape:current-layer="svg3055"
     fit-margin-top="1"
     fit-margin-left="1"
     fit-margin-right="1"
     fit-margin-bottom="1" />
  <path
     style="fill:#000000"
     d="m 27.743846,85.769555 c -7.14199,-1.765 -11.15881,-4.12264 -17.03445,-9.99828 -7.2067655,-7.20676 -9.81369958,-14.304682 -9.2172875,-25.09598 0.309455,-5.599188 1.119878,-9.366361 2.700494,-12.552996 l 2.258351,-4.552996 -2.603553,-3.836551 C 1.2219745,25.863971 0.67084142,22.983006 1.1620295,15.695377 1.5006525,10.671319 3.3240645,7.127027 7.2846545,3.794411 13.708293,-1.610725 23.574566,1.112805 27.904766,9.486474 c 2.08873,4.039159 2.08873,14.338483 0,18.377642 -1.94777,3.766565 -7.18764,8.311179 -9.58266,8.311179 -6.527513,0 -10.5228645,17.136578 -6.17841,26.5 9.35181,20.15555 42.0313,19.51088 50.69137,-1 3.84431,-9.10504 0.68761,-22.219367 -6.10764,-25.373802 -3.95536,-1.836126 -7.33309,-4.971456 -9.1786,-8.519917 -2.03953,-3.921532 -1.92549,-13.496404 0.21448,-18.00604 5.48789,-11.564879 19.19707,-11.690667 25.189608,-0.231125 3.27334,6.259629 1.61149,18.630174 -3.01903,22.473169 -1.241008,1.029939 -1.089758,2.064485 1.08583,7.427167 10.90547,26.881276 -14.013888,53.556288 -43.275868,46.324808 z m -7.65043,-58.934132 c 4.64114,-4.940272 4.40773,-12.739372 -0.49672,-16.597215 -3.30879,-2.602697 -5.396909,-2.602697 -8.705702,0 -6.7306265,5.294312 -3.5947175,18.937087 4.352852,18.937087 1.48678,0 3.61691,-1.027771 4.84957,-2.339872 z m 45.39191,-0.174333 c 4.724318,-4.724322 4.052108,-13.065468 -1.35835,-16.855102 -3.15467,-2.209618 -5.29078,-2.05109 -8.34499,0.619307 -3.53002,3.086425 -4.6183,7.475956 -3.01194,12.148551 2.34039,6.807729 8.13284,8.669677 12.71528,4.087244 z"
     id="path3065"
     inkscape:connector-curvature="0" />
</svg>
